<svg width="1440" height="1507" viewBox="0 0 1440 1507" fill="none" xmlns="http://www.w3.org/2000/svg">
<path d="M330.398 518.436C196.59 512.195 83.2991 431.956 -1 337.452V0H1450.37C1468.96 178.31 1494.98 535.732 1450.37 538.942C1394.62 542.954 1207.29 337.452 1085.97 337.452C964.649 337.452 779.102 431.956 734.053 448.45C689.004 464.943 464.206 524.677 330.398 518.436Z" fill="url(#paint0_linear)" fill-opacity="0.15"/>
<g filter="url(#filter0_d)">
<path d="M1305.22 1471.77C1294.71 1446.87 1324.06 1433.63 1340.05 1430.12C1352.3 1427.3 1379.26 1425.08 1389.06 1438.71C1401.31 1455.76 1381.53 1471.77 1376.81 1487.77C1372.08 1503.78 1353.19 1498.29 1340.05 1497.26C1326.92 1496.22 1318.36 1502.89 1305.22 1471.77Z" fill="#BD9090"/>
</g>
<path d="M1261.38 346.671C1300.64 132.715 1124.5 153.492 1031.52 190.626C948.995 209.948 776.819 283.374 748.346 422.497C712.753 596.4 904.47 656.494 1006.99 687.675C1109.52 718.856 1212.32 614.117 1261.38 346.671Z" fill="#E1F4FD" fill-opacity="0.29"/>
<defs>
<filter id="filter0_d" x="1299" y="1428" width="98" height="79" filterUnits="userSpaceOnUse" color-interpolation-filters="sRGB">
<feFlood flood-opacity="0" result="BackgroundImageFix"/>
<feColorMatrix in="SourceAlpha" type="matrix" values="0 0 0 0 0 0 0 0 0 0 0 0 0 0 0 0 0 0 127 0"/>
<feOffset dy="4"/>
<feGaussianBlur stdDeviation="2"/>
<feColorMatrix type="matrix" values="0 0 0 0 0 0 0 0 0 0 0 0 0 0 0 0 0 0 0.25 0"/>
<feBlend mode="normal" in2="BackgroundImageFix" result="effect1_dropShadow"/>
<feBlend mode="normal" in="SourceGraphic" in2="effect1_dropShadow" result="shape"/>
</filter>
<linearGradient id="paint0_linear" x1="1475.35" y1="471.184" x2="50.5047" y2="-83.0124" gradientUnits="userSpaceOnUse">
<stop stop-color="#3366FF"/>
<stop offset="1" stop-color="#C9E7E5"/>
</linearGradient>
</defs>
</svg>
