<svg width="229" height="47" viewBox="0 0 229 47" fill="none" xmlns="http://www.w3.org/2000/svg">
<path d="M158.48 35.21C156.94 35.21 155.56 34.96 154.34 34.46C153.12 33.96 152.14 33.22 151.4 32.24C150.68 31.26 150.3 30.08 150.26 28.7H155.72C155.8 29.48 156.07 30.08 156.53 30.5C156.99 30.9 157.59 31.1 158.33 31.1C159.09 31.1 159.69 30.93 160.13 30.59C160.57 30.23 160.79 29.74 160.79 29.12C160.79 28.6 160.61 28.17 160.25 27.83C159.91 27.49 159.48 27.21 158.96 26.99C158.46 26.77 157.74 26.52 156.8 26.24C155.44 25.82 154.33 25.4 153.47 24.98C152.61 24.56 151.87 23.94 151.25 23.12C150.63 22.3 150.32 21.23 150.32 19.91C150.32 17.95 151.03 16.42 152.45 15.32C153.87 14.2 155.72 13.64 158 13.64C160.32 13.64 162.19 14.2 163.61 15.32C165.03 16.42 165.79 17.96 165.89 19.94H160.34C160.3 19.26 160.05 18.73 159.59 18.35C159.13 17.95 158.54 17.75 157.82 17.75C157.2 17.75 156.7 17.92 156.32 18.26C155.94 18.58 155.75 19.05 155.75 19.67C155.75 20.35 156.07 20.88 156.71 21.26C157.35 21.64 158.35 22.05 159.71 22.49C161.07 22.95 162.17 23.39 163.01 23.81C163.87 24.23 164.61 24.84 165.23 25.64C165.85 26.44 166.16 27.47 166.16 28.73C166.16 29.93 165.85 31.02 165.23 32C164.63 32.98 163.75 33.76 162.59 34.34C161.43 34.92 160.06 35.21 158.48 35.21ZM184.467 13.94V18.05H178.887V35H173.757V18.05H168.177V13.94H184.467ZM192.172 18.05V22.31H199.042V26.27H192.172V30.89H199.942V35H187.042V13.94H199.942V18.05H192.172ZM227.122 13.94V35H221.992V22.37L217.282 35H213.142L208.402 22.34V35H203.272V13.94H209.332L215.242 28.52L221.092 13.94H227.122Z" fill="#003348"/>
<path d="M18.517 9.05134C18.5147 8.35074 18.2353 7.67952 17.7397 7.18428C17.2441 6.68904 16.5727 6.41003 15.8721 6.4082H6.75486C6.06536 6.42588 5.41003 6.71219 4.9286 7.20611C4.44718 7.70004 4.17773 8.36248 4.17773 9.05221C4.17773 9.74194 4.44718 10.4044 4.9286 10.8983C5.41003 11.3922 6.06536 11.6786 6.75486 11.6962H15.8721C16.5729 11.694 17.2443 11.4146 17.7398 10.919C18.2353 10.4235 18.5147 9.7521 18.517 9.05134ZM7.6527 9.97871C7.46921 9.97906 7.28975 9.92495 7.13701 9.82326C6.98428 9.72157 6.86515 9.57686 6.79469 9.40744C6.72424 9.23802 6.70562 9.05149 6.74121 8.87149C6.77679 8.69148 6.86498 8.52609 6.9946 8.39623C7.12422 8.26636 7.28946 8.17787 7.46939 8.14195C7.64933 8.10602 7.83588 8.12427 8.00543 8.19441C8.17499 8.26455 8.31993 8.38341 8.42191 8.53595C8.52389 8.68849 8.57832 8.86785 8.57832 9.05134C8.57832 9.29699 8.48084 9.53261 8.30731 9.70648C8.13377 9.88034 7.89835 9.97825 7.6527 9.97871ZM14.3161 9.05134C14.3161 8.86793 14.3705 8.68864 14.4724 8.53614C14.5743 8.38364 14.7191 8.26477 14.8886 8.19458C15.058 8.12439 15.2445 8.10604 15.4244 8.14182C15.6043 8.1776 15.7695 8.26592 15.8992 8.39561C16.0289 8.52531 16.1172 8.69054 16.153 8.87043C16.1888 9.05032 16.1704 9.23678 16.1002 9.40623C16.0301 9.57569 15.9112 9.72051 15.7587 9.82241C15.6062 9.92431 15.4269 9.97871 15.2435 9.97871C14.9975 9.97871 14.7616 9.881 14.5877 9.70709C14.4138 9.53318 14.3161 9.29729 14.3161 9.05134Z" fill="#3CC3E0"/>
<path d="M0.482422 1.51758V3.88114C0.48828 3.95935 0.523488 4.03243 0.580976 4.08578C0.638465 4.13912 0.713991 4.16877 0.792415 4.16877C0.87084 4.16877 0.946366 4.13912 1.00385 4.08578C1.06134 4.03243 1.09653 3.95935 1.10239 3.88114V1.51758C1.00424 1.5588 0.898869 1.58003 0.792415 1.58003C0.685962 1.58003 0.580571 1.5588 0.482422 1.51758Z" fill="#3CC3E0"/>
<path d="M0.792994 5.04848e-06C0.610469 -0.000647195 0.433348 0.0619194 0.291721 0.177059C0.150094 0.292199 0.052692 0.452817 0.0160699 0.63163C-0.0205521 0.810444 0.00585744 0.996435 0.0908177 1.15798C0.175778 1.31953 0.314046 1.44666 0.482131 1.51781C0.58028 1.55903 0.685671 1.58027 0.792124 1.58027C0.898578 1.58027 1.00395 1.55903 1.1021 1.51781C1.27004 1.44672 1.40822 1.31973 1.4932 1.15836C1.57818 0.996996 1.60472 0.811184 1.56833 0.632478C1.53193 0.453772 1.43484 0.293165 1.29352 0.177886C1.1522 0.0626073 0.975368 -0.000243483 0.792994 5.04848e-06ZM0.994427 0.854432C0.980881 0.897385 0.95412 0.934961 0.917941 0.961784C0.881761 0.988607 0.838029 1.0033 0.792994 1.00378C0.747726 1.0034 0.703716 0.988765 0.667241 0.961954C0.630765 0.935143 0.603672 0.897524 0.589801 0.854432C0.582837 0.833728 0.579307 0.812022 0.579371 0.790178C0.576698 0.760626 0.580218 0.73083 0.589695 0.702711C0.599171 0.674592 0.61441 0.648767 0.634425 0.626861C0.654439 0.604954 0.678799 0.587445 0.70595 0.575474C0.733102 0.563504 0.762451 0.557328 0.792124 0.557328C0.821797 0.557328 0.851126 0.563504 0.878277 0.575474C0.905429 0.587445 0.929788 0.604954 0.949803 0.626861C0.969818 0.648767 0.985057 0.674592 0.994533 0.702711C1.00401 0.73083 1.00753 0.760626 1.00486 0.790178C1.00492 0.812022 1.00139 0.833728 0.994427 0.854432Z" fill="#3CC3E0"/>
<path d="M30.407 33.5316L14.4301 17.5546C16.8155 17.319 19.1519 16.726 21.361 15.7954C24.4053 14.4791 26.2878 12.7216 26.9616 10.5699C27.6666 8.31231 26.7271 5.89494 24.4469 4.09754C22.3144 2.41648 19.3986 1.27898 15.7794 0.716312C11.3007 0.0216614 6.83408 0.296046 2.86068 1.51689C2.61961 1.58797 2.40181 1.72196 2.22967 1.90509C2.05753 2.08822 1.93727 2.31387 1.88122 2.55887C1.8232 2.81617 1.83269 3.08411 1.90876 3.33666C1.98483 3.58922 2.1249 3.81782 2.31538 4.00028C2.49416 4.16784 2.71495 4.28392 2.95434 4.3362C3.19373 4.38848 3.44281 4.37501 3.67517 4.29723C6.77678 3.34556 10.1736 3.03472 13.7684 3.3751C16.9986 3.679 19.6834 4.47438 21.7569 5.74038C22.7068 6.32041 23.3772 6.91781 23.8027 7.56383C24.0718 7.97194 24.3757 8.6058 24.2906 9.31608C24.1013 10.9277 22.2709 12.1485 20.7705 12.8883C18.1499 14.1839 14.8799 14.8386 11.0541 14.8386C10.7188 14.8314 10.3921 14.9458 10.1346 15.1606C9.87697 15.3754 9.70579 15.6761 9.65262 16.0073C9.59377 16.3023 9.62722 16.6082 9.7484 16.8835C9.86958 17.1588 10.0726 17.3901 10.3299 17.546L28.3561 35.5721C28.4868 35.7062 28.6429 35.813 28.8152 35.8863C28.9875 35.9597 29.1726 35.9981 29.3599 35.9993C29.5521 35.9973 29.7421 35.9573 29.9188 35.8816C30.0955 35.8059 30.2556 35.696 30.3897 35.5582C30.5281 35.428 30.6386 35.271 30.7147 35.0968C30.7907 34.9226 30.8307 34.7348 30.8321 34.5448C30.8336 34.3547 30.7965 34.1663 30.7232 33.991C30.6498 33.8157 30.5417 33.657 30.4053 33.5246" fill="#3CC3E0"/>
<path d="M28.009 30.5802C28.0099 30.3536 28.0349 30.1277 28.0836 29.9064L31.4093 11.0415C31.5207 10.1891 31.956 9.41235 32.6249 8.87241C33.2997 8.33997 34.1396 8.06042 34.9989 8.08224C36.0941 8.08224 37.0093 8.39019 37.7445 9.00612C38.1003 9.29574 38.3848 9.66328 38.576 10.0803C38.7672 10.4974 38.86 10.9528 38.8472 11.4114C38.8464 11.6374 38.8214 11.8627 38.7726 12.0834L35.4469 30.9501C35.3343 31.8021 34.8992 32.5784 34.2313 33.1192C33.5559 33.6506 32.7164 33.93 31.8573 33.9093C30.7621 33.9093 29.8469 33.6008 29.1117 32.9837C28.7559 32.6944 28.4714 32.3272 28.2802 31.9105C28.089 31.4937 27.9962 31.0386 28.009 30.5802Z" fill="#3CC3E0"/>
<path d="M53.0071 33.8746L46.5815 34.8836C46.3349 34.9307 46.0842 34.9534 45.8331 34.9513C43.7155 34.9513 42.4825 34.0321 42.134 32.1935L38.468 13.6308C38.4423 13.4071 38.4295 13.1821 38.4298 12.9569C38.4259 12.5588 38.5006 12.1638 38.6496 11.7946C38.7986 11.4254 39.019 11.0892 39.2981 10.8053C39.9089 10.1808 40.7109 9.7786 41.5766 9.66257L47.7051 8.68659C48.7441 8.53268 49.7929 8.45433 50.8432 8.45215C54.357 8.45215 57.278 9.42697 59.6062 11.3766C61.9345 13.3263 63.4355 16.0169 64.1093 19.4485C64.2809 20.346 64.3681 21.2577 64.3698 22.1715C64.3698 25.1978 63.355 27.7652 61.3255 29.8734C59.296 31.9817 56.5231 33.3154 53.0071 33.8746ZM48.8235 14.9454L46.3923 15.3153L48.8965 28.0951L51.6977 27.6575C55.0111 27.1411 56.6679 25.3136 56.6679 22.175C56.6649 21.5872 56.602 21.0012 56.4803 20.4262C55.7336 16.6832 53.6913 14.8117 50.3535 14.8117C49.8408 14.8134 49.3291 14.857 48.8235 14.9419V14.9454Z" fill="#3CC3E0"/>
<path d="M75.9882 34.044C72.4513 33.5508 69.6241 32.1164 67.5065 29.7407C65.4631 27.4309 64.4414 24.6732 64.4414 21.4674C64.4439 20.6554 64.5188 19.8452 64.6654 19.0465C65.2443 15.7284 66.783 13.021 69.2814 10.9243C71.7798 8.82764 74.7627 7.7793 78.2302 7.7793C79.0056 7.78189 79.7798 7.83992 80.5469 7.95296C84.0583 8.44616 86.8606 9.88698 88.9539 12.2754C91.0068 14.5575 92.1269 17.5279 92.0919 20.5973C92.0914 21.3876 92.0164 22.176 91.8679 22.9522C91.289 26.246 89.7573 28.9476 87.2728 31.057C84.7883 33.1665 81.799 34.22 78.3049 34.2177C77.5295 34.2161 76.7552 34.158 75.9882 34.044ZM79.4615 14.2031C79.1416 14.1361 78.8157 14.1023 78.4889 14.1024C76.8461 14.1024 75.4765 14.6627 74.3801 15.7834C73.2837 16.9041 72.5734 18.3617 72.2493 20.1562C72.1504 20.7111 72.1004 21.2736 72.0999 21.8373C72.0999 23.4303 72.5236 24.7617 73.3711 25.8315C74.2186 26.9013 75.4516 27.5514 77.0701 27.7818C77.4024 27.8482 77.7403 27.8825 78.0791 27.8842C78.8515 27.9008 79.6188 27.7568 80.3327 27.4615C81.0465 27.1662 81.6913 26.7258 82.2262 26.1684C83.2681 25.0917 83.953 23.6445 84.2806 21.8269C84.3802 21.2943 84.4302 20.7536 84.43 20.2118C84.43 18.621 84.019 17.2896 83.197 16.2176C82.302 15.0934 81.0574 14.4219 79.4632 14.2031H79.4615Z" fill="#3CC3E0"/>
<path d="M98.7414 24.9287C98.8155 26.0957 98.7408 27.8781 98.5173 30.2758C98.4676 31.3305 98.0502 32.1409 97.2652 32.707C96.4803 33.2732 95.5402 33.5146 94.4449 33.4312C93.374 33.3409 92.5144 32.9536 91.8661 32.2694C91.2177 31.5852 90.9561 30.7278 91.0811 29.6975L92.9115 10.8655C93.0099 9.81079 93.4273 9.00036 94.1636 8.43422C94.8999 7.86808 95.8528 7.62726 97.0221 7.71178L103.56 8.2154C106.525 8.46201 108.818 9.23538 110.438 10.5355C112.154 11.9248 113.014 13.8531 113.015 16.3202C113.015 16.6803 113.003 17.0502 112.978 17.4299C112.911 18.2572 112.682 19.0632 112.304 19.8018C111.925 20.5405 111.405 21.1974 110.773 21.735C109.602 22.7666 108.097 23.4502 106.257 23.786L111.002 29.2338C111.599 29.9284 111.861 30.6347 111.787 31.3525C111.713 32.2486 111.29 33.0161 110.517 33.6552C110.135 33.9713 109.693 34.2073 109.218 34.349C108.743 34.4907 108.244 34.5353 107.751 34.4801C106.556 34.3898 105.635 33.9192 104.986 33.0682L98.7414 24.9287ZM102.963 14.5385L100.049 14.3023L99.6375 18.5396L102.553 18.7758C104.247 18.909 105.156 18.2583 105.28 16.8238C105.427 15.4345 104.655 14.6728 102.963 14.5385Z" fill="#3CC3E0"/>
<path d="M132.706 34.6761C131.237 34.5604 130.215 33.9438 129.642 32.8266C129.493 32.5349 129.169 31.4026 128.67 29.4298L119.665 28.7247C118.818 30.5621 118.283 31.6156 118.059 31.8854C117.287 32.9169 116.178 33.3766 114.733 33.2643C113.791 33.199 112.903 32.7993 112.229 32.1372C111.906 31.8396 111.659 31.4692 111.508 31.057C111.357 30.6447 111.307 30.2024 111.361 29.7667C111.41 29.2907 111.563 28.8313 111.809 28.4208L121.039 10.7663C121.533 9.85183 122.262 9.08572 123.151 8.54687C124.074 7.98289 125.156 7.73478 126.233 7.84005C128.574 8.02066 130.079 9.25367 130.749 11.5391L136.28 30.338C136.439 30.838 136.515 31.3608 136.504 31.8854C136.464 32.3112 136.329 32.7226 136.109 33.0894C135.889 33.4561 135.59 33.7687 135.233 34.0041C134.494 34.5154 133.601 34.7531 132.706 34.6761ZM125.308 16.2141C124.786 17.6254 123.851 19.755 122.505 22.6031L127.02 22.94L125.308 16.2141Z" fill="#3CC3E0"/>
<path d="M138.894 10.1893C138.234 10.1896 137.588 9.99409 137.039 9.62747C136.49 9.26084 136.062 8.73956 135.809 8.12958C135.556 7.51961 135.49 6.84836 135.619 6.20073C135.747 5.5531 136.065 4.9582 136.532 4.4913C136.999 4.0244 137.594 3.70646 138.242 3.57773C138.889 3.44899 139.561 3.51523 140.171 3.76807C140.781 4.02092 141.302 4.449 141.668 4.99817C142.035 5.54733 142.231 6.19291 142.23 6.85321C142.229 7.73757 141.877 8.5853 141.252 9.21063C140.626 9.83596 139.779 10.1879 138.894 10.1893ZM138.894 3.80543C138.291 3.80508 137.702 3.98354 137.2 4.31823C136.699 4.65292 136.308 5.1288 136.077 5.68567C135.846 6.24255 135.786 6.8554 135.903 7.44672C136.02 8.03805 136.311 8.58128 136.737 9.00769C137.163 9.4341 137.706 9.72456 138.297 9.8423C138.889 9.96004 139.501 9.89977 140.058 9.66914C140.615 9.43851 141.092 9.04787 141.426 8.54663C141.761 8.04539 141.94 7.45608 141.94 6.85321C141.939 6.04547 141.618 5.27105 141.047 4.69973C140.476 4.12841 139.702 3.8068 138.894 3.80543Z" fill="#3CC3E0"/>
<path d="M139.764 8.16288C139.726 8.16288 139.689 8.14776 139.661 8.12078C139.634 8.09379 139.619 8.05713 139.618 8.01874V7.72872C139.618 7.61341 139.572 7.50282 139.491 7.42112C139.41 7.33943 139.299 7.29328 139.184 7.29283H138.458V8.01874C138.454 8.05447 138.437 8.08748 138.41 8.11147C138.384 8.13546 138.349 8.14874 138.313 8.14874C138.277 8.14874 138.242 8.13546 138.216 8.11147C138.189 8.08748 138.172 8.05447 138.168 8.01874V7.16779C138.168 7.16779 138.168 7.15564 138.168 7.14869C138.168 7.14175 138.168 7.1348 138.168 7.12785V5.69688C138.168 5.6778 138.172 5.65892 138.179 5.64131C138.186 5.62371 138.197 5.60774 138.211 5.59434C138.224 5.58093 138.24 5.57034 138.258 5.5632C138.276 5.55606 138.295 5.55252 138.314 5.55274H139.182C139.374 5.5532 139.559 5.62988 139.694 5.76596C139.83 5.90205 139.906 6.08642 139.906 6.27864V6.56867C139.816 6.63631 139.744 6.72392 139.693 6.82458C139.643 6.92524 139.617 7.03619 139.617 7.14869C139.617 7.26119 139.643 7.37214 139.693 7.47281C139.744 7.57347 139.816 7.66108 139.906 7.72872V8.01874C139.906 8.05697 139.891 8.09364 139.864 8.12067C139.837 8.1477 139.8 8.16288 139.762 8.16288H139.764ZM138.456 7.00282H139.191C139.306 7.00282 139.416 6.95707 139.498 6.87565C139.579 6.79423 139.625 6.68381 139.625 6.56867V6.27864C139.625 6.22148 139.614 6.16485 139.592 6.11198C139.571 6.0591 139.539 6.01103 139.498 5.97054C139.458 5.93004 139.41 5.89789 139.357 5.87597C139.305 5.85404 139.248 5.84275 139.191 5.84275H138.465L138.456 7.00282Z" fill="#3CC3E0"/>
</svg>
