<svg width="939" height="1389" viewBox="0 0 939 1389" fill="none" xmlns="http://www.w3.org/2000/svg">
<path d="M77.6524 48.0015L86.5253 54.8473C88.4491 56.3316 91.1045 56.1513 92.7463 54.4247C94.7336 52.3347 94.4394 48.8713 92.1207 47.0607L86.7464 42.8638L80.8476 43.6709L77.6524 48.0015Z" fill="#FE646F"/>
<path d="M92.1212 47.0608L86.7469 42.864L83.5811 43.2972L83.5134 44.6908L88.2742 48.4086C90.5929 50.2193 90.8871 53.6827 88.8999 55.7726C88.8861 55.7871 88.8718 55.8006 88.8579 55.8148C90.2654 55.9893 91.7087 55.5167 92.7468 54.4249C94.734 52.3349 94.4399 48.8715 92.1212 47.0608Z" fill="#FD4755"/>
<path d="M87.2626 50.1518C86.8767 50.287 86.43 50.226 86.0733 49.9486L80.4154 45.4965C79.8461 45.0539 79.721 44.2277 80.1358 43.6513C80.5507 43.075 81.3486 42.9663 81.918 43.4087L87.5758 47.8608C88.1451 48.3034 88.2702 49.1296 87.8554 49.706C87.7005 49.9213 87.4922 50.0713 87.2626 50.1518Z" fill="#FE99A0"/>
<path d="M90.3798 37.4094C90.7451 39.2306 89.9403 41.0604 88.3822 41.9385L84.5021 44.1306L77.6527 48.0015L75.428 48.3851L74.8628 49.5931L74.8612 49.5937C73.1607 50.5927 70.0509 52.444 67.2418 54.1189C63.9036 56.1118 62.6616 60.4472 64.383 64.101L74.9027 86.4217C75.5797 87.8574 74.912 89.5514 73.4724 90.0557L54.1322 96.8314L35.8411 60.1013L63.5394 23.8778L65.3554 21.5033C66.631 22.4456 68.1319 22.997 69.6835 23.0938L78.4043 23.6326L79.8593 25.3073L85.0182 31.2407L90.3798 37.4094Z" fill="#FFDFCF"/>
<path d="M64.3839 64.101L74.9037 86.4217C75.5807 87.8574 74.913 89.5514 73.4733 90.0557L69.8926 91.3102C71.0349 90.5459 71.488 89.0691 71.0248 87.747C70.9887 87.6439 70.9472 87.5408 70.8987 87.4383L60.5363 65.449C58.8874 61.9509 60.4068 58.9448 66.4189 54.6913C63.7103 56.8632 62.812 60.7664 64.3839 64.101Z" fill="#FFCEBF"/>
<path d="M79.8603 25.3073C76.014 25.0716 69.177 24.6458 65.837 24.4418C65.1971 24.4792 64.4139 24.2663 63.5404 23.8778L65.3564 21.5033C66.632 22.4456 68.1329 22.997 69.6845 23.0938L78.4053 23.6326L79.8603 25.3073Z" fill="#FFCEBF"/>
<path d="M90.3806 37.4092C90.7459 39.2304 89.941 41.0602 88.383 41.9384L84.5029 44.1305C86.0609 43.2523 86.8983 40.5784 86.533 38.7572L85.019 31.2406L90.3806 37.4092Z" fill="#FFCEBF"/>
<path d="M66.1982 39.3466C61.7718 43.9836 47.4017 45.5695 47.7029 58.524C47.9092 67.3109 51.7087 85.8266 54.1325 96.8313L29.9532 105.302C28.3956 105.848 26.7126 104.752 26.4958 103.052L18.3971 39.5418C17.6491 33.6688 19.6598 27.8355 23.8471 23.919C29.6044 18.5338 38.1764 14.5206 43.7189 12.3062C47.4365 10.8227 51.6773 11.4113 54.9853 13.8539L65.3559 21.5032C65.3557 21.5033 70.6241 34.7079 66.1982 39.3466Z" fill="#E49280"/>
<path d="M47.762 84.1589C41.1434 86.4776 33.8619 82.5007 31.8708 75.48L23.4946 45.9432C23.0504 44.4317 23.4777 42.7807 24.491 41.6544C25.1626 40.9077 26.3937 41.2529 26.6764 42.2495L54.7623 67.4602C57.5881 74.1884 54.3803 81.8402 47.762 84.1589Z" fill="#DD7F66"/>
<path d="M51.1382 15.2019C54.1084 16.9632 62.2432 24.6497 65.8367 24.4419C66.0056 24.4522 66.1863 24.4632 66.3722 24.4746C65.8288 22.6895 65.3558 21.5034 65.3558 21.5034L54.9853 13.8541C51.6772 11.4115 47.4364 10.8229 43.7189 12.3064C43.1382 12.5384 42.5227 12.7914 41.8822 13.0623C45.058 12.4377 48.4143 13.1905 51.1382 15.2019Z" fill="#DD7F66"/>
<path d="M51.6091 82.8111C44.9905 85.1299 37.709 81.1529 35.7179 74.1323L24.8264 35.7257L43.1507 29.306L58.6094 66.1124C61.4352 72.8407 58.2275 80.4924 51.6091 82.8111Z" fill="#E49280"/>
<path d="M58.6107 66.112L43.7317 30.6857C43.3671 29.8176 42.2683 29.6077 41.6543 30.2834C40.6768 31.3588 40.3041 33.0245 40.9256 34.5119L54.7636 67.4598C57.3092 73.5209 54.957 80.3292 49.6275 83.3155C50.291 83.2063 50.954 83.0406 51.6102 82.8107C58.2287 80.492 61.4365 72.8402 58.6107 66.112Z" fill="#DD7F66"/>
<path d="M88.355 27.3588L90.3803 37.4095L86.2633 36.258C85.4471 36.0297 84.7844 35.3995 84.4964 34.5775L83.8554 32.7478C83.5023 31.74 82.5957 31.0401 81.5656 30.9798C80.3499 30.9087 79.3349 29.9538 79.1519 28.7089L78.4057 23.6324L84.6173 24.0158C86.4399 24.1287 87.9825 25.508 88.355 27.3588Z" fill="#FDB4BA"/>
<path d="M84.6167 24.0154L78.4051 23.6321L78.6404 25.2326C79.4419 25.2821 80.1662 25.3265 80.7695 25.3635C82.592 25.4755 84.1358 26.8559 84.5079 28.7065L86.012 36.172C86.0938 36.2044 86.1772 36.2338 86.2627 36.2576L90.3797 37.4091L88.3544 27.3585C87.9819 25.5077 86.4393 24.1284 84.6167 24.0154Z" fill="#FE99A0"/>
<path d="M98.6604 66.9098L100.018 70.7861C100.239 71.4147 100.217 72.1001 99.9605 72.6996L98.5776 75.9212L97.2009 76.8908L97.0956 79.3717C97.303 79.9637 97.2605 80.5798 97.0229 81.0999C96.7869 81.6194 96.3547 82.0397 95.7859 82.239L88.5254 84.7827C87.3861 85.1818 86.1258 84.5442 85.711 83.3601L84.3436 79.4572C83.5496 77.1906 83.6535 74.7121 84.6322 72.5694L86.2058 69.1241C86.8877 67.6344 88.1204 66.4986 89.6352 65.9679L93.8678 64.485C95.8076 63.8054 97.9532 64.8909 98.6604 66.9098Z" fill="#E49280"/>
<path d="M93.8677 64.485L90.0207 65.8327C91.9603 65.1532 94.1061 66.2388 94.8133 68.2575L96.1712 72.1335C96.3912 72.7612 96.3701 73.4463 96.1126 74.0463L93.7853 79.4682C93.5239 80.077 93.361 80.7346 93.3651 81.4067C93.3696 82.1487 93.0373 82.9946 92.3569 83.4397L95.7859 82.2384C96.9246 81.8394 97.5111 80.5553 97.0959 79.3702L97.2012 76.8901L98.5779 75.9204L99.9597 72.6983C100.217 72.0984 100.238 71.4133 100.018 70.7855L98.6603 66.9095C97.953 64.8911 95.8073 63.8055 93.8677 64.485Z" fill="#DD7F66"/>
<path d="M57.2197 33.8678C56.5578 34.0997 55.8256 33.7292 55.5843 33.0404L54.7026 30.5236C54.4613 29.8348 54.8022 29.0884 55.464 28.8565C56.1258 28.6247 56.858 28.9951 57.0993 29.6839L57.9811 32.2008C58.2224 32.8896 57.8815 33.6359 57.2197 33.8678Z" fill="#766E6E"/>
<path d="M77.6527 48.0016L75.9199 48.9802C75.7028 49.103 75.3375 49.315 74.8628 49.5933L74.8612 49.5939C73.5336 48.7334 72.0537 47.172 71.4449 44.3588C71.2907 43.6473 71.7225 42.9546 72.4101 42.8126C73.0977 42.6707 73.7785 43.1342 73.9333 43.8473C74.7325 47.5367 77.6224 47.9973 77.6527 48.0016Z" fill="#E49280"/>
<path d="M97.3501 72.4187L98.5771 75.9209L97.095 79.3714L94.9534 73.2584C94.7705 72.7362 94.2144 72.4549 93.7127 72.6307L92.2012 73.1603C91.5397 73.392 90.8071 73.0214 90.5659 72.3329C90.3247 71.6444 90.6658 70.8976 91.3273 70.6659L92.8388 70.1363C93.7544 69.8155 94.72 69.9141 95.5394 70.3328C96.3511 70.7448 97.0192 71.4742 97.3501 72.4187Z" fill="#766E6E"/>
<path d="M97.3491 72.4189L98.5761 75.9211L97.094 79.3716L95.6253 75.1793L96.1114 74.0475C96.3693 73.4474 96.3895 72.7626 96.1693 72.134L95.5384 70.333C96.3501 70.745 97.0182 71.4744 97.3491 72.4189Z" fill="#686262"/>
<g filter="url(#filter0_d)">
<path d="M34.2196 1353.77C23.7104 1328.87 53.0633 1315.63 69.0535 1312.12C81.3044 1309.3 108.256 1307.08 118.057 1320.71C130.308 1337.76 110.529 1353.77 105.806 1369.77C101.083 1385.78 82.1899 1380.29 69.0535 1379.26C55.917 1378.22 47.3561 1384.89 34.2196 1353.77Z" fill="#BD9090"/>
</g>
<g filter="url(#filter1_d)">
<path d="M798.54 469.929C786.513 441.523 820.106 426.419 838.406 422.417C852.426 419.205 883.271 416.668 894.488 432.224C908.508 451.668 885.873 469.929 880.467 488.19C875.062 506.451 853.44 500.195 838.406 499.012C823.372 497.828 813.574 505.437 798.54 469.929Z" fill="#BD9090"/>
</g>
<path d="M878.529 507.204C871.289 490.02 891.51 480.883 902.526 478.462C910.965 476.519 929.532 474.984 936.284 484.394C944.723 496.157 931.098 507.204 927.844 518.251C924.59 529.297 911.575 525.513 902.526 524.797C893.476 524.081 887.579 528.684 878.529 507.204Z" fill="#BD9090"/>
<defs>
<filter id="filter0_d" x="28" y="1310" width="98" height="79" filterUnits="userSpaceOnUse" color-interpolation-filters="sRGB">
<feFlood flood-opacity="0" result="BackgroundImageFix"/>
<feColorMatrix in="SourceAlpha" type="matrix" values="0 0 0 0 0 0 0 0 0 0 0 0 0 0 0 0 0 0 127 0"/>
<feOffset dy="4"/>
<feGaussianBlur stdDeviation="2"/>
<feColorMatrix type="matrix" values="0 0 0 0 0 0 0 0 0 0 0 0 0 0 0 0 0 0 0.25 0"/>
<feBlend mode="normal" in2="BackgroundImageFix" result="effect1_dropShadow"/>
<feBlend mode="normal" in="SourceGraphic" in2="effect1_dropShadow" result="shape"/>
</filter>
<filter id="filter1_d" x="792" y="420" width="111" height="89" filterUnits="userSpaceOnUse" color-interpolation-filters="sRGB">
<feFlood flood-opacity="0" result="BackgroundImageFix"/>
<feColorMatrix in="SourceAlpha" type="matrix" values="0 0 0 0 0 0 0 0 0 0 0 0 0 0 0 0 0 0 127 0"/>
<feOffset dy="4"/>
<feGaussianBlur stdDeviation="2"/>
<feColorMatrix type="matrix" values="0 0 0 0 0 0 0 0 0 0 0 0 0 0 0 0 0 0 0.25 0"/>
<feBlend mode="normal" in2="BackgroundImageFix" result="effect1_dropShadow"/>
<feBlend mode="normal" in="SourceGraphic" in2="effect1_dropShadow" result="shape"/>
</filter>
</defs>
</svg>
