<svg width="43" height="40" viewBox="0 0 43 40" fill="none" xmlns="http://www.w3.org/2000/svg">
<circle cx="37.011" cy="6.06671" r="5.64581" fill="#C81B1B"/>
<path d="M8.95228 31.473H27.3539L30.1534 20.6747C32.1324 19.4697 33.4567 17.2916 33.4567 14.81C33.4567 11.0267 30.3787 7.94873 26.5954 7.94873C22.8122 7.94873 19.7342 11.0267 19.7342 14.81C19.7342 15.8617 19.9724 16.8588 20.3971 17.7505H9.08506L7.77816 11.8694H0V13.8298H6.20569L9.69074 29.5126H8.95228C7.33087 29.5126 6.01175 30.8317 6.01175 32.4531C6.01175 34.0745 7.33087 35.3937 8.95228 35.3937H10.101C9.99224 35.7005 9.93245 36.0303 9.93245 36.3738C9.93245 37.9952 11.2516 39.3144 12.873 39.3144C14.4944 39.3144 15.8135 37.9952 15.8135 36.3738C15.8135 36.0303 15.7537 35.7005 15.6449 35.3937H19.9028C19.794 35.7005 19.7342 36.0303 19.7342 36.3738C19.7342 37.9952 21.0533 39.3144 22.6747 39.3144C24.2962 39.3144 25.6153 37.9952 25.6153 36.3738C25.6153 36.0303 25.5555 35.7005 25.4467 35.3937H27.5756V33.4333H8.95228C8.41181 33.4333 7.9721 32.9936 7.9721 32.4531C7.9721 31.9127 8.41181 31.473 8.95228 31.473ZM11.6989 29.5126L10.8276 25.5919H14.9116L15.2383 29.5126H11.6989ZM20.6293 25.5919L20.3026 29.5126H17.2055L16.8788 25.5919H20.6293ZM16.7154 23.6315L16.3887 19.7108H21.1194L20.7927 23.6315H16.7154ZM22.2697 29.5126L22.5965 25.5919H26.8534L25.8369 29.5126H22.2697ZM27.3617 23.6315H22.7598L23.0078 20.6561C24.0523 21.2995 25.2812 21.6712 26.5954 21.6712C27.0423 21.6712 27.4792 21.6277 27.9025 21.5458L27.3617 23.6315ZM26.5954 9.90908C29.2978 9.90908 31.4963 12.1076 31.4963 14.81C31.4963 17.5123 29.2978 19.7108 26.5954 19.7108C23.8931 19.7108 21.6946 17.5123 21.6946 14.81C21.6946 12.1076 23.8931 9.90908 26.5954 9.90908ZM14.4215 19.7108L14.7483 23.6315H10.392L9.52071 19.7108H14.4215ZM13.8532 36.3738C13.8532 36.9143 13.4135 37.354 12.873 37.354C12.3325 37.354 11.8928 36.9143 11.8928 36.3738C11.8928 35.8334 12.3325 35.3937 12.873 35.3937C13.4135 35.3937 13.8532 35.8334 13.8532 36.3738ZM23.6549 36.3738C23.6549 36.9143 23.2152 37.354 22.6747 37.354C22.1343 37.354 21.6946 36.9143 21.6946 36.3738C21.6946 35.8334 22.1343 35.3937 22.6747 35.3937C23.2152 35.3937 23.6549 35.8334 23.6549 36.3738Z" fill="#013349"/>
<path d="M25.6156 17.7507H27.576V15.7903H29.5363V13.83H27.576V11.8696H25.6156V13.83H23.6553V15.7903H25.6156V17.7507Z" fill="#013349"/>
</svg>
